<svg width="22" height="26" viewBox="0 0 22 26" fill="none" xmlns="http://www.w3.org/2000/svg">
<path d="M1.52031 14.9218L8.98119 7.46194C9.47768 6.97257 9.87183 6.38931 10.1407 5.74612C10.4096 5.10294 10.5478 4.41269 10.5473 3.71556C10.5474 2.32577 10.0018 0.991513 9.02794 0L1.566 7.463C1.06978 7.95229 0.675862 8.53542 0.407171 9.17841C0.13848 9.82141 0.000388833 10.5114 0.000936315 11.2083C0.000936315 12.6671 0.585311 13.9708 1.52031 14.9228V14.9218ZM19.5903 10.5623L12.1283 18.0232C11.6321 18.5125 11.2383 19.0956 10.9696 19.7386C10.7009 20.3816 10.5628 21.0716 10.5632 21.7685C10.5632 23.2135 11.1476 24.5321 12.0826 25.4841L19.5435 18.0232C20.0401 17.5339 20.4344 16.9507 20.7033 16.3075C20.9722 15.6643 21.1103 14.974 21.1096 14.2768C21.1096 12.818 20.5252 11.5143 19.5903 10.5623ZM19.5435 7.47681C20.04 6.98764 20.4341 6.40457 20.703 5.76156C20.9719 5.11855 21.1101 4.42846 21.1096 3.7315C21.1096 2.2865 20.5252 0.969 19.5903 0.0159375L1.566 18.0253C0.571686 19.012 0.00866117 20.3524 9.90929e-05 21.7532C-0.00846298 23.154 0.538134 24.5012 1.52031 25.5L19.5435 7.47681Z" fill="black"/>
</svg>
