<svg width="26" height="26" viewBox="0 0 26 26" fill="none" xmlns="http://www.w3.org/2000/svg">
<path d="M25.1356 10.8093L14.2845 0.986563L14.2723 0.976155C13.9237 0.669882 13.468 0.5 12.9953 0.5C12.5225 0.5 12.0669 0.669882 11.7182 0.976155L11.706 0.986563L0.854966 10.8093C0.663037 10.9807 0.5102 11.1883 0.406084 11.4192C0.301968 11.6501 0.24883 11.8991 0.25002 12.1506V24.1786C0.25002 24.6616 0.450085 25.1249 0.806205 25.4665C1.16232 25.8081 1.64533 26 2.14895 26H8.65959C9.16322 26 9.64622 25.8081 10.0023 25.4665C10.3585 25.1249 10.5585 24.6616 10.5585 24.1786V17.9337C10.5585 17.8647 10.5871 17.7985 10.638 17.7497C10.6889 17.7009 10.7579 17.6735 10.8298 17.6735H15.1702C15.2422 17.6735 15.3112 17.7009 15.362 17.7497C15.4129 17.7985 15.4415 17.8647 15.4415 17.9337V24.1786C15.4415 24.6616 15.6416 25.1249 15.9977 25.4665C16.3538 25.8081 16.8368 26 17.3404 26H23.8511C24.3547 26 24.8377 25.8081 25.1938 25.4665C25.5499 25.1249 25.75 24.6616 25.75 24.1786V12.1506C25.75 11.8984 25.6954 11.649 25.5896 11.4181C25.4838 11.1872 25.3292 10.9799 25.1356 10.8093ZM24.1223 24.1786C24.1223 24.2476 24.0938 24.3138 24.0429 24.3626C23.992 24.4114 23.923 24.4388 23.8511 24.4388H17.3404C17.2685 24.4388 17.1995 24.4114 17.1486 24.3626C17.0977 24.3138 17.0692 24.2476 17.0692 24.1786V17.9337C17.0692 17.4506 16.8691 16.9873 16.513 16.6457C16.1569 16.3041 15.6739 16.1122 15.1702 16.1122H10.8298C10.3262 16.1122 9.84317 16.3041 9.48705 16.6457C9.13093 16.9873 8.93087 17.4506 8.93087 17.9337V24.1786C8.93087 24.2476 8.90229 24.3138 8.85141 24.3626C8.80054 24.4114 8.73154 24.4388 8.65959 24.4388H2.14895C2.07701 24.4388 2.00801 24.4114 1.95713 24.3626C1.90626 24.3138 1.87768 24.2476 1.87768 24.1786V12.1506C1.8776 12.1144 1.8854 12.0786 1.90058 12.0454C1.91576 12.0123 1.93799 11.9825 1.96584 11.9581L1.97805 11.9477L12.821 2.12756C12.8704 2.0862 12.9338 2.06341 12.9993 2.06341C13.0649 2.06341 13.1283 2.0862 13.1777 2.12756L24.022 11.949L24.0328 11.9594C24.0609 11.9837 24.0834 12.0134 24.0988 12.0466C24.1142 12.0797 24.1223 12.1156 24.1223 12.1519V24.1786Z" fill="black"/>
</svg>

